<svg width="696" height="362" viewBox="0 0 696 362" fill="none" xmlns="http://www.w3.org/2000/svg">
<path fill-rule="evenodd" clip-rule="evenodd" d="M177.073 54.3322C185.643 53.6572 194.28 54.0102 202.769 55.3982C207.069 56.0032 211.277 57.1932 215.608 57.5782C217.3 57.7782 218.996 57.8852 220.694 58.0072C221.547 58.0822 222.588 58.3872 222.884 59.3332C223.049 60.2662 222.876 61.2152 222.793 62.1462C222.07 68.5442 221.964 74.9982 221.932 81.4332C221.891 82.2622 221.896 83.1722 221.449 83.8982C220.937 84.6952 219.525 84.8132 219.126 83.8452C218.544 82.5682 218.684 81.0972 218.385 79.7422C217.698 76.1242 216.374 72.4092 213.655 69.8912C210.501 66.8752 206.514 64.9922 202.487 63.5782C194.351 60.8312 185.685 60.1722 177.181 60.5912C173.389 60.7542 169.621 61.3552 165.946 62.3122C160.098 63.9262 154.642 66.9462 149.99 70.9322C143.662 76.6082 139.995 84.8162 138.154 93.1302C136.174 102.399 136.099 112.137 138.22 121.384C140.109 129.597 143.545 137.46 148.457 144.218C151.05 147.85 154.393 150.83 157.87 153.523C162.597 157.104 167.889 159.891 173.489 161.674C179.776 163.654 186.405 164.403 192.961 164.021C196.965 163.675 201.037 163.261 204.812 161.746C205.965 161.207 207.192 160.631 207.967 159.553C208.759 158.413 208.898 156.962 208.901 155.599C208.898 147.054 208.901 138.502 208.898 129.957C208.85 127.271 208.871 124.569 208.445 121.91C208.184 120.35 207.664 118.676 206.327 117.75C203.896 116.024 200.849 115.823 197.993 115.749C197.147 115.797 196.087 115.242 196.216 114.228C196.239 113.162 197.403 112.748 198.273 112.74C202.275 112.652 206.279 112.828 210.28 112.945C212.593 112.986 214.905 113.223 217.221 113.079C221.216 112.902 225.21 112.753 229.206 112.683C230.062 112.69 230.956 112.665 231.764 113.004C232.627 113.361 232.888 114.755 232.11 115.338C231.361 115.932 230.347 115.722 229.472 115.884C227.68 116.142 225.664 116.322 224.311 117.719C222.914 119.207 222.666 121.384 222.458 123.351C222.043 129.129 222.114 134.921 222.104 140.712C222.104 146.137 222.101 151.557 222.104 156.982C222.077 158.586 222.123 160.2 221.926 161.796C221.802 162.569 221.629 163.41 221.039 163.959C220.295 164.655 219.345 165.038 218.447 165.472C215.441 166.985 212.235 168.022 209.009 168.91C196.532 172.148 183.396 172.195 170.77 169.859C160.304 167.862 150.122 163.58 141.819 156.608C137.333 152.939 133.722 148.222 130.853 143.129C126.145 134.699 123.429 125.09 123.052 115.36C122.673 105.515 124.366 95.5362 128.298 86.5382C131.558 79.0732 136.396 72.2982 142.567 67.1302C150.577 60.3802 160.61 56.5602 170.778 55.0882C172.858 54.6882 174.971 54.5612 177.073 54.3322Z" fill="white"/>
<path fill-rule="evenodd" clip-rule="evenodd" d="M470.805 74.4772C471.447 74.2802 472.39 73.7952 472.869 74.5092C473.438 75.5842 472.859 76.7842 472.665 77.8832C471.924 81.0312 472.097 84.2772 471.672 87.4612C471.543 88.2392 471.194 89.3142 470.154 89.3142C469.154 89.2512 468.767 88.2462 468.801 87.4512C468.722 85.5342 468.525 83.2112 466.65 82.0252C464.602 80.8502 462.11 80.6642 459.77 80.4252C454.74 80.2102 449.703 80.2032 444.672 80.1352C444.553 90.3012 444.641 100.471 444.628 110.639C450.013 110.674 455.398 110.649 460.777 110.527C462.858 110.422 465.018 110.446 466.991 109.761C468.358 109.315 468.866 107.482 470.462 107.579C471.609 108.076 471.207 109.449 471.066 110.358C470.155 114.557 470.134 118.856 469.781 123.108C469.718 124.261 467.943 124.681 467.406 123.61C466.929 122.166 467.337 120.558 466.643 119.14C466.144 117.55 464.481 116.601 462.815 116.299C460.38 115.834 457.877 115.878 455.411 115.749C451.808 115.658 448.204 115.495 444.603 115.56C444.671 123.874 444.549 132.196 444.578 140.513C444.649 143.165 444.431 145.969 445.594 148.457C446.335 150.133 448.319 150.865 450.112 151.146C453.942 151.732 457.85 151.574 461.716 151.489C464.498 151.258 467.553 151.176 469.868 149.535C471.462 148.424 472.177 146.616 472.663 144.89C472.963 143.866 473.005 142.774 473.49 141.797C473.838 141.119 475.101 140.824 475.538 141.573C476.041 142.38 475.867 143.36 475.811 144.245C475.485 147.107 475.101 149.969 474.588 152.804C474.344 153.94 474.034 155.171 473.105 156.005C472.033 156.876 470.512 156.821 469.182 156.879C460.741 156.906 452.297 156.757 443.868 156.385C438.449 156.019 433.031 156.605 427.609 156.517C426.78 156.535 425.611 156.225 425.586 155.296C425.464 154.702 425.991 154.16 426.618 154.099C428.302 153.822 430.296 154.048 431.679 152.95C432.984 151.404 433.068 149.326 433.368 147.461C433.915 141.19 433.802 134.895 433.837 128.607C433.823 115.566 433.849 102.53 433.827 89.4922C433.756 86.9352 433.786 84.3672 433.446 81.8252C433.253 80.4572 432.554 79.0262 431.135 78.4222C429.219 77.5122 427.015 77.5892 424.933 77.4222C423.987 77.3602 423.494 76.1722 424.15 75.5472C424.711 74.9832 425.593 74.9642 426.364 74.9562C430.635 74.9472 434.906 75.1472 439.178 75.2522C447.523 75.2462 455.871 75.2862 464.216 75.1912C466.413 75.0852 468.695 75.1432 470.805 74.4772Z" fill="white"/>
<path fill-rule="evenodd" clip-rule="evenodd" d="M268.489 74.3332C268.938 73.4942 270.191 73.4652 270.727 74.2362C271.61 75.4302 272.005 76.8962 272.585 78.2492C279.222 95.6412 285.749 113.078 292.481 130.435C294.49 135.511 296.301 140.678 298.6 145.635C299.912 148.24 301.423 150.959 303.949 152.539C305.563 153.428 307.414 153.808 309.237 153.871C309.815 153.929 310.498 153.861 310.961 154.303C311.397 154.794 311.235 155.662 310.666 155.985C309.787 156.466 308.74 156.385 307.776 156.42C302.249 156.379 296.716 156.368 291.194 156.148C290.296 156.046 289.203 156.141 288.537 155.406C288.162 154.616 288.827 153.971 289.485 153.674C290.426 153.162 289.968 151.89 289.685 151.097C286.409 142.444 283.273 133.736 279.921 125.114C272.351 125.117 264.783 125.1 257.216 125.124C256.599 125.002 256.451 125.643 256.292 126.084C254.239 132.231 252.168 138.375 250.123 144.525C249.37 146.811 248.653 149.185 248.748 151.62C248.978 153.248 250.843 153.834 252.254 153.864C253.091 153.959 254.331 153.702 254.748 154.672C255.094 155.672 254.028 156.408 253.141 156.388C250.142 156.48 247.148 156.119 244.147 156.117C240.359 156.219 236.572 156.412 232.781 156.423C231.906 156.412 230.852 156.409 230.261 155.643C229.83 154.87 230.469 153.9 231.326 153.933C233.708 153.778 236.343 153.768 238.281 152.13C240.927 149.94 242.046 146.528 243.22 143.408C251.027 121.812 258.848 100.217 266.647 78.6162C267.195 77.1622 267.639 75.6422 268.489 74.3332ZM264.323 101.661C262.33 107.849 260.334 114.037 258.34 120.227C264.954 120.23 271.569 120.23 278.183 120.227C274.755 110.417 271.386 100.584 267.895 90.7982C266.588 94.3782 265.527 98.0452 264.323 101.661Z" fill="white"/>
<path fill-rule="evenodd" clip-rule="evenodd" d="M330.104 76.9032C330.245 75.8742 330.489 74.4992 331.657 74.1412C332.878 73.9932 333.586 75.1332 334.022 76.0632C344.934 97.9552 355.817 119.858 366.732 141.752C377.327 119.694 387.871 97.6132 398.47 75.5612C398.875 74.5712 400.176 73.6032 401.189 74.4572C401.993 75.3522 401.984 76.6442 402.166 77.7652C404.419 97.9152 406.672 118.066 408.925 138.216C409.383 141.634 409.454 145.136 410.541 148.439C411.175 150.385 412.374 152.341 414.376 153.176C416.821 154.125 419.489 154.298 422.093 154.39C423.003 154.295 423.539 155.454 422.949 156.095C422.132 156.971 420.795 156.862 419.692 156.878C413.68 156.73 407.66 156.628 401.66 156.18C400.664 156.018 399.202 156.044 398.757 154.966C398.404 154.187 399.181 153.616 399.819 153.338C400.127 151.84 399.878 150.314 399.75 148.816C398.093 131.462 396.444 114.107 394.789 96.7512C385.535 115.863 376.368 135.015 367.096 154.119C366.52 155.082 366.069 156.629 364.702 156.669C363.52 156.608 363.037 155.347 362.486 154.52C358.276 146.908 354.417 139.122 350.418 131.408C345.964 122.72 341.89 113.858 337.684 105.058C336.563 102.591 335.346 100.172 334.249 97.6982C333.054 111.128 331.886 124.562 330.699 137.993C330.348 142.374 329.758 146.752 329.951 151.153C329.98 152.241 330.722 153.258 331.772 153.629C333.372 154.189 335.088 154.235 336.761 154.425C337.567 154.476 337.968 155.467 337.534 156.097C337.086 156.704 336.271 156.861 335.555 156.874C331.055 156.969 326.557 156.379 322.059 156.67C319.954 156.724 317.85 156.935 315.744 156.86C314.92 156.839 313.772 156.572 313.667 155.612C313.499 154.954 314.2 154.424 314.818 154.412C316.615 154.215 318.713 154.419 320.161 153.157C321.594 151.695 321.849 149.569 322.095 147.65C324.77 124.07 327.436 100.487 330.104 76.9032Z" fill="white"/>
<path fill-rule="evenodd" clip-rule="evenodd" d="M571.648 92.5112C572.009 92.4082 572.474 92.1652 572.821 92.4722C573.555 93.1232 573.071 94.1252 572.95 94.9272C572.474 96.8242 572.747 98.8132 572.309 100.716C572.211 101.46 571.128 101.962 570.622 101.265C570.084 100.146 570.371 98.6932 569.415 97.7442C568.252 96.7152 566.585 96.5272 565.069 96.5032C561.988 96.4622 557.331 96.3782 554.253 96.3542C554.253 102.743 554.258 110.103 554.258 116.489C558.247 116.448 561.416 116.462 565.407 116.411C566.268 116.39 567.147 116.36 567.994 116.15C568.867 115.966 569.216 115.062 569.951 114.652C570.929 114.411 571.234 115.54 571 116.239C570.432 118.829 570.439 121.484 570.23 124.105C570.211 124.912 569.028 125.282 568.553 124.614C568.032 123.474 568.397 122.01 567.432 121.047C566.471 120.026 564.94 119.888 563.592 119.854C560.204 119.762 557.639 119.745 554.252 119.724C554.264 126.329 554.213 131.962 554.416 138.564C554.496 140.093 554.441 141.691 555.064 143.135C555.646 144.291 557.181 144.19 558.322 144.336C559.043 144.464 560.091 144.206 560.494 144.98C560.726 145.6 560.172 146.22 559.523 146.254C555.779 146.465 552.031 145.963 548.287 146.22C546.866 146.254 545.442 146.376 544.032 146.258C543.178 146.285 542.642 145.081 543.405 144.613C544.454 144.111 546.051 144.636 546.767 143.521C547.499 141.982 547.477 140.232 547.56 138.57C547.785 131.206 547.685 123.841 547.709 116.472C547.686 110.45 547.768 104.426 547.614 98.4072C547.51 97.3752 547.585 96.0612 546.568 95.4082C545.408 94.5722 543.872 94.9282 542.563 94.5812C541.776 94.2672 542.003 93.0392 542.822 92.9212C543.917 92.7382 545.04 92.8572 546.152 92.8472C552.331 93.0722 560.09 92.9552 566.277 92.9712C568.062 92.8612 569.937 93.1322 571.648 92.5112Z" fill="white"/>
<path fill-rule="evenodd" clip-rule="evenodd" d="M513.001 93.7152C519.581 93.0182 526.543 94.2012 532.114 98.0692C535.922 100.656 538.887 104.515 540.557 108.911C542.577 114.128 542.819 119.96 541.851 125.453C540.776 131.522 537.767 137.277 533.196 141.247C528.744 145.211 522.915 147.32 517.091 147.5C511.354 147.707 505.402 146.348 500.698 142.801C496.183 139.512 493.031 134.453 491.514 128.973C489.429 121.832 490.175 113.862 493.626 107.312C495.705 103.168 498.833 99.5712 502.71 97.1882C505.828 95.2322 509.393 94.1342 513.001 93.7152ZM517.786 97.9152V142.95C518.79 142.917 519.784 142.808 520.753 142.645V98.4542C519.8 98.2102 518.81 98.0262 517.786 97.9152ZM514.97 142.875V97.7912C513.948 97.8132 512.957 97.9102 512.003 98.0812V142.385C512.979 142.621 513.975 142.784 514.97 142.875ZM509.187 141.465V98.8252C503.121 100.99 498.945 106.385 497.952 113.72C497.251 118.858 497.601 124.196 499.2 129.122C500.602 133.56 503.064 137.985 506.941 140.329C507.663 140.766 508.414 141.14 509.187 141.465ZM523.569 99.4082V141.967C526.154 141.159 528.421 139.888 530.028 138.278C533.47 134.263 534.796 128.766 535.04 123.501C535.388 116.942 534.223 109.983 530.383 104.619C528.874 102.508 526.502 100.653 523.569 99.4082Z" fill="white"/>
<path fill-rule="evenodd" clip-rule="evenodd" d="M72.1374 186.063C73.7294 186.064 75.3905 185.797 76.9235 186.355C79.0195 186.971 81.2265 187.004 83.3915 187.222C87.1655 187.517 90.9505 187.719 94.7395 187.644C267.146 187.647 437.382 187.644 609.792 187.647C614.391 187.696 619.006 187.326 623.512 186.36C624.125 186.282 624.818 186.006 625.435 186.326C626.373 187.211 625.967 188.64 626.164 189.78C626.689 194.558 627.73 197.523 628.72 202.214C628.883 203.182 628.917 204.306 628.273 205.124C627.635 205.851 626.323 205.645 625.984 204.734C623.669 199.054 622.393 197.799 617.809 196.572C611.98 195.012 605.893 194.829 599.895 194.88C566.929 194.909 533.963 194.829 500.998 194.842C469.677 194.789 438.355 194.825 407.034 194.774C373.092 194.789 339.153 194.703 305.214 194.737C282.037 194.639 258.858 194.759 235.685 194.664C197.687 194.687 159.686 194.601 121.689 194.628C121.704 210.858 121.681 227.09 121.692 243.318C121.714 258.007 121.628 272.191 121.916 286.878C122.065 291.218 122.055 295.589 122.791 299.885C123.148 301.967 124.217 304.245 126.428 304.897C129.23 305.65 132.17 305.609 135.041 305.901C136.027 305.975 136.598 307.247 136.004 308.023C135.38 308.847 134.227 308.875 133.284 308.912C128.437 308.898 123.585 308.783 118.734 308.606C112.251 308.237 105.766 309.101 99.2775 308.884C98.4705 308.837 97.4665 308.485 97.3385 307.575C97.0905 306.741 97.7945 305.892 98.6555 305.887C100.44 305.751 102.246 305.562 103.972 305.06C105.376 304.602 106.06 303.167 106.469 301.872C107.432 298.59 107.583 295.158 107.725 291.764C107.981 284.955 108.032 278.638 108.054 271.829C108.128 246.091 108.069 220.354 108.086 194.621C100.487 194.736 95.0625 194.802 87.4645 194.921C84.1945 195.025 80.8355 195.117 77.7335 196.254C76.2065 196.808 74.8624 197.818 73.9394 199.144C72.7834 200.773 71.8185 202.528 71.0265 204.354C70.7095 205.193 69.8025 205.972 68.8635 205.643C67.9465 205.292 67.9445 204.151 68.0415 203.344C68.5175 200.238 69.2825 197.185 69.9635 194.119C70.6225 191.417 71.0404 188.64 72.1374 186.063Z" fill="white"/>
<path fill-rule="evenodd" clip-rule="evenodd" d="M344.183 208.968C341.06 209.135 337.957 209.651 334.936 210.445C327.782 212.329 321.2 216.324 316.199 221.77C310.902 227.537 307.335 234.786 305.552 242.383C303.582 250.792 304.308 259.737 307.109 267.871C309.553 274.975 313.883 281.486 319.744 286.226C325.392 290.79 332.353 293.591 339.525 294.595C351.075 296.208 363.342 293.753 372.813 286.776C382.209 279.851 388.161 268.814 389.672 257.322C390.706 249.44 390.167 241.216 387.302 233.755C385.489 229.03 382.721 224.661 379.181 221.039C375.452 217.226 370.887 214.259 365.94 212.279C359.063 209.522 351.555 208.573 344.183 208.968ZM345.611 214.038V289.686L344.973 289.598C344.153 289.493 343.335 289.357 342.529 289.184L342.081 289.089V214.324C343.267 214.163 344.418 214.073 345.611 214.038ZM337.927 287.848C329.907 284.843 323.696 278.804 319.989 271.134C316.009 262.894 314.729 253.532 315.387 244.462C315.937 236.882 318.761 229.861 323.614 224.008C327.337 219.521 332.372 216.599 337.981 215.133L338.69 214.948V288.133L337.927 287.848ZM356.669 215.594C360.782 216.968 364.444 219.224 367.547 222.25C372.443 227.031 376.15 233.341 377.774 239.994C379.453 246.886 379.628 254.077 378.805 261.101C378.092 267.133 376.295 273.145 372.871 278.21C369.025 283.894 363.251 287.495 356.618 289.027L355.926 289.19V215.345L356.669 215.594ZM352.012 289.747C351.202 289.814 350.388 289.855 349.574 289.862L349.001 289.869V214.097C349.913 214.073 351.615 214.268 352.531 214.535V289.707L352.012 289.747Z" fill="white"/>
<path fill-rule="evenodd" clip-rule="evenodd" d="M401.88 212.716C402.02 211.97 402.398 210.953 403.442 210.979C404.619 211.135 405.386 212.057 406.182 212.764C413.872 220.238 421.579 227.696 429.317 235.13C437.74 243.248 446.255 251.294 454.607 259.473C460.428 265.149 466.17 270.89 472.066 276.505C471.663 260.453 471.29 244.401 470.896 228.348C470.753 225.198 470.951 222 470.224 218.892C469.926 217.546 469.079 216.184 467.578 215.674C465.377 214.921 462.97 215.011 460.664 214.824C459.738 214.78 459.3 213.695 459.802 213.057C460.514 212.423 461.597 212.449 462.539 212.426C466.394 212.419 470.245 212.625 474.101 212.714C478.12 212.772 482.168 212.141 486.165 212.591C487.521 212.755 487.413 214.556 486.148 214.756C484.331 214.98 482.364 214.941 480.766 215.863C479.482 216.678 479.147 218.162 478.987 219.473C478.594 222.979 478.882 226.509 478.753 230.027C478.726 244.467 478.639 258.908 478.622 273.353C478.53 278.839 478.665 284.332 478.484 289.819C478.359 290.803 478.484 291.956 477.732 292.766C476.952 293.247 475.987 292.803 475.346 292.349C473.545 291.08 471.937 289.616 470.313 288.178C461.757 280.633 453.471 272.851 445.174 265.086C432.583 253.238 420.335 241.104 408.114 228.95C408.582 243.939 409.019 258.921 409.476 273.908C409.588 277.076 409.575 280.254 410.033 283.4C410.41 285.492 410.858 288.214 413.401 289.059C415.527 289.683 417.788 289.649 419.992 289.862C420.989 290.008 421.243 291.385 420.382 291.833C419.23 292.45 417.812 292.182 416.544 292.24C411.959 292.294 407.386 291.741 402.812 292.039C400.092 292.138 397.372 292.261 394.656 292.243C393.924 292.226 393.1 292.192 392.581 291.687C391.947 291.039 392.408 289.838 393.422 289.832C395.372 289.649 397.457 289.711 399.235 288.842C400.347 288.123 400.703 286.838 400.981 285.699C401.435 283.284 401.439 280.83 401.51 278.387C401.561 258.452 401.584 238.52 401.635 218.583C401.665 216.631 401.524 214.656 401.88 212.716Z" fill="white"/>
<path fill-rule="evenodd" clip-rule="evenodd" d="M579.458 209.646C585.147 209.063 590.953 209.463 596.527 210.608C597.901 210.92 599.335 210.9 600.728 211.123C601.569 211.347 601.579 212.233 601.518 212.87C601.138 216.708 601.094 220.562 601.046 224.412C600.979 225.221 600.894 226.423 599.769 226.596C598.914 226.64 598.28 226.013 598.225 225.308C597.92 223.472 597.551 221.622 596.761 219.894C595.55 217.635 593.031 216.2 590.477 215.337C587.243 214.267 583.723 214.024 580.305 214.206C576.87 214.499 573.391 215.659 571.028 217.953C566.62 222.125 566.502 229.068 570.289 233.602C573.33 237.272 577.379 240.156 581.278 243.076C586.443 246.728 591.773 250.273 596.09 254.741C599.519 258.207 602.295 262.356 603.041 266.975C604.354 273.17 602.808 279.829 598.616 284.953C594.848 289.667 588.85 292.724 582.513 293.837C575.537 295.066 568.197 294.767 561.401 292.905C559.869 292.359 558.258 291.922 556.868 291.125C555.816 290.511 555.674 289.32 555.65 288.307C555.606 284.547 555.799 280.784 556.146 277.033C556.274 275.982 556.125 274.789 556.877 273.893C557.474 273.117 559.136 273.527 559.156 274.49C559.278 275.534 559.2 276.592 559.345 277.643C559.677 280.309 560.796 282.96 562.865 284.96C565.232 287.317 568.671 288.609 572.123 289.172C577.426 290.101 583.352 289.572 587.77 286.609C590.708 284.659 592.701 281.699 593.44 278.532C594.433 273.758 593.034 268.603 589.466 264.881C581.796 256.783 570.714 251.747 563.699 243.101C560.185 239.008 558.351 233.87 558.571 228.737C558.612 223.787 560.745 218.788 564.844 215.359C568.78 212.019 574.103 210.223 579.458 209.646Z" fill="white"/>
<path fill-rule="evenodd" clip-rule="evenodd" d="M539.948 211.559C540.815 211.422 541.606 210.862 542.521 210.998C543.606 211.622 543.166 212.934 542.964 213.858C541.964 217.248 542.178 220.769 541.693 224.217C541.54 224.917 541.269 225.89 540.305 225.987C539.4 226.096 538.757 225.297 538.76 224.581C538.597 222.638 538.604 220.31 536.726 218.959C534.748 217.728 532.218 217.521 529.885 217.247C524.375 216.947 518.848 217.032 513.334 216.904C513.138 224.364 513.317 231.834 513.256 239.297C513.28 241.93 513.205 244.57 513.294 247.203C519.692 247.195 526.098 247.252 532.492 246.996C534.378 246.798 536.657 246.886 538.033 245.521C538.627 245.028 539.115 244.284 540 244.165C540.688 244.04 541.228 244.659 541.255 245.214C541.302 245.872 541.133 246.52 541.014 247.166C540.129 251.17 540.032 255.268 539.756 259.324C539.681 260.07 538.973 260.942 538.013 260.605C536.729 260.247 537.102 258.846 536.966 257.947C536.855 256.568 536.515 255.065 535.375 254.038C533.907 252.861 531.842 252.61 529.942 252.475C524.398 252.17 518.847 252.062 513.296 251.997C513.222 260.216 513.259 268.438 513.218 276.658C513.374 279.588 512.921 282.796 514.752 285.413C516.484 287.34 519.563 287.459 522.136 287.679C526.574 287.818 531.059 287.923 535.463 287.292C537.552 286.974 539.729 286.234 541.031 284.688C542.218 283.256 542.728 281.503 543.097 279.792C543.26 279.12 543.356 278.388 543.861 277.824C544.278 277.296 545.35 277.248 545.747 277.832C546.236 278.489 546.102 279.33 546.086 280.08C545.783 282.915 545.37 285.743 544.848 288.554C544.577 289.714 544.327 290.944 543.472 291.898C542.542 292.861 540.994 292.925 539.664 292.962C530.15 293.026 520.634 292.854 511.133 292.467C506.39 292.209 501.649 292.663 496.908 292.656C495.83 292.612 494.592 292.836 493.701 292.195C492.913 291.652 493.309 290.378 494.317 290.276C495.884 290.039 497.548 290.124 499.037 289.55C500.16 289.048 500.553 287.902 500.855 286.912C501.644 284.009 501.662 281.004 501.828 278.041C502.049 270.31 501.937 262.572 501.964 254.841C501.957 245.787 501.971 236.734 501.961 227.68C501.927 224.828 501.934 221.975 501.631 219.135C501.473 217.748 500.984 216.194 499.536 215.422C497.502 214.323 495.029 214.376 492.737 214.229C491.92 214.2 491.272 213.462 491.541 212.776C491.788 212.015 492.846 211.817 493.646 211.818C498.288 211.774 502.927 211.995 507.57 212.093C516.426 212.088 525.279 212.13 534.132 212.032C536.075 211.974 538.042 211.918 539.948 211.559Z" fill="white"/>
<path fill-rule="evenodd" clip-rule="evenodd" d="M138.26 212.147C138.362 211.289 139.369 210.994 140.121 210.998C144.418 210.939 148.707 211.191 153.003 211.276C156.503 211.202 160.002 210.984 163.505 210.968C164.136 210.995 164.851 211.022 165.37 211.456C165.997 211.934 165.81 213.127 165.014 213.338C163.193 213.774 161.006 213.453 159.544 214.821C158.073 216.418 158.222 218.747 158.06 220.752C157.815 228.805 157.927 236.867 157.904 244.927C173.396 244.932 188.886 244.93 204.377 244.93C204.35 237.069 204.464 229.207 204.247 221.352C204.04 219.216 204.318 216.664 202.649 215.011C200.859 213.554 198.378 213.602 196.183 213.473C195.457 213.498 194.802 212.868 194.898 212.147C195.03 211.303 196.01 210.998 196.766 210.998C200.859 210.981 204.949 211.176 209.037 211.279C212.641 211.242 216.239 211.001 219.848 210.981C220.641 210.993 221.58 210.969 222.163 211.61C222.669 212.219 222.285 213.263 221.499 213.411C219.759 213.711 217.746 213.521 216.312 214.71C214.895 216.03 214.897 218.106 214.748 219.884C214.434 227.153 214.602 234.431 214.555 241.704C214.555 250.217 214.555 258.728 214.555 267.239C214.636 273.177 214.511 279.135 215.159 285.038C215.363 286.751 215.753 288.832 217.516 289.65C219.777 290.507 222.31 290.1 224.609 290.697C225.223 291.06 225.263 291.999 224.742 292.461C224.118 292.983 223.243 292.956 222.48 292.977C219.161 292.936 215.84 292.872 212.521 292.752C207.869 292.454 203.213 293.048 198.557 292.97C197.893 292.956 197.136 292.837 196.73 292.275C196.302 291.665 196.611 290.705 197.375 290.548C198.795 290.312 200.29 290.385 201.644 289.826C202.692 289.347 203.068 288.168 203.36 287.157C204.079 284.16 204.099 281.053 204.245 277.989C204.459 268.664 204.364 259.333 204.374 250.002C188.885 249.981 173.398 249.985 157.909 249.999C157.906 258.811 157.854 267.623 158.014 276.436C158.113 279.685 158.17 282.954 158.689 286.171C158.919 287.609 159.59 289.202 161.092 289.741C163.195 290.379 165.433 290.243 167.593 290.527C168.652 290.683 168.756 292.288 167.796 292.667C166.434 293.206 164.927 292.889 163.503 292.936C158.642 292.963 153.789 292.455 148.933 292.79C146.404 292.848 143.87 293.067 141.348 292.922C140.456 292.908 139.588 292.061 139.985 291.165C140.369 290.314 141.461 290.487 142.23 290.379C143.65 290.224 145.492 290.142 146.163 288.656C147.117 286.547 147.234 284.187 147.421 281.916C147.872 273.683 147.68 265.437 147.724 257.196C147.724 248.684 147.724 240.172 147.727 231.661C147.701 227.454 147.788 223.243 147.487 219.045C147.341 217.513 147.093 215.707 145.703 214.756C143.892 213.586 141.638 213.562 139.556 213.464C138.844 213.473 138.132 212.89 138.26 212.147Z" fill="white"/>
<path fill-rule="evenodd" clip-rule="evenodd" d="M229.074 211.783C229.518 211.074 230.509 210.981 231.309 210.976C235.54 211.01 239.773 211.141 244 211.286C251.609 211.228 259.266 210.511 266.845 211.495C271.531 212.086 276.19 213.534 279.971 216.24C284.226 219.541 287.077 224.434 287.488 229.593C287.722 234.727 286.355 239.908 283.589 244.357C281.05 248.582 277.57 252.248 273.803 255.56C280.694 263.773 287.472 272.081 294.837 279.937C297.929 283.222 301.289 286.437 305.525 288.438C308.633 289.957 312.171 290.435 315.642 290.475C316.72 290.357 317.694 291.665 316.768 292.419C315.547 293.204 313.94 292.887 312.543 292.961C307.209 292.846 301.77 293.357 296.535 292.16C291.245 290.791 287.386 286.912 284.05 283.077C277.664 275.565 271.588 267.831 265.553 260.076C265.037 259.425 264.468 258.563 263.46 258.673C258.736 258.625 254.01 258.483 249.286 258.499C249.246 265.162 249.269 271.825 249.438 278.485C249.55 281.146 249.615 283.832 250.154 286.457C250.446 287.823 251.192 289.325 252.738 289.78C254.986 290.389 257.37 290.238 259.67 290.573C260.629 290.831 260.703 292.194 259.832 292.607C258.753 293.123 257.493 292.926 256.336 292.947C252.216 292.913 248.107 292.77 243.993 292.662C240.287 292.777 236.581 292.951 232.878 292.961C232.288 292.944 231.664 292.906 231.192 292.567C230.396 292.132 230.535 290.865 231.417 290.593C233.099 290.207 235.021 290.491 236.541 289.583C237.842 288.467 237.995 286.683 238.307 285.161C238.998 279.975 238.826 274.737 238.952 269.525C238.969 256.332 238.955 243.132 238.959 229.939C238.867 226.189 239.01 222.435 238.674 218.695C238.535 217.26 238.18 215.63 236.816 214.763C234.843 213.525 232.364 213.598 230.095 213.436C229.234 213.405 228.674 212.479 229.074 211.783ZM250.942 215.806C250.199 215.881 249.148 216.088 249.284 216.995C249.24 228.39 249.291 239.791 249.263 251.188C249.253 251.762 249.256 252.522 249.951 252.773C252.328 253.756 254.972 253.929 257.533 254.19C261.368 254.394 265.501 254.678 269.018 252.935C272.794 250.99 274.86 247.135 275.88 243.378C277.158 238.226 277.09 232.738 275.466 227.656C274.056 223.173 270.778 219.043 266.114 217.102C261.403 215.018 255.994 215.229 250.942 215.806Z" fill="white"/>
</svg>
