<svg width="477" height="477" viewBox="0 0 477 477" fill="none" xmlns="http://www.w3.org/2000/svg">
<g clip-path="url(#clip0_1_2)">
<path d="M376.496 34.7561C362.449 29.9421 349.25 27.7191 336.961 27.7191C298.053 27.7191 268.182 49.9651 248.748 82.6142C246.092 87.0802 241.719 89.3222 237.321 89.3222C233.164 89.3222 228.98 87.3232 226.19 83.3092C204.704 52.4341 175.846 28.2721 136.906 28.2721C125.646 28.2721 113.541 30.2921 100.53 34.7541C21.3645 61.9392 -61.4836 242.982 230.992 447.27C233.273 448.865 235.888 449.661 238.502 449.661C241.117 449.661 243.732 448.866 246.013 447.27C538.478 242.984 455.629 61.9412 376.496 34.7561Z" fill="#FF4A4A"/>
<path d="M475.495 135.505C471.64 104.729 460.424 76.2442 443.057 53.1271C426.989 31.7381 406.145 15.839 384.368 8.35702C368.187 2.81001 352.242 0 336.961 0C297.296 0 262.216 18.728 236.662 53.1441C208.196 18.231 174.702 0.556001 136.904 0.556001C122.639 0.556001 107.757 3.18001 92.6706 8.35302C70.8748 15.837 50.0265 31.7371 33.9538 53.1251C16.5805 76.2432 5.36077 104.729 1.50657 135.507C-4.7196 185.226 8.42867 239.458 39.5334 292.339C75.4874 353.464 135.165 413.408 216.907 470.504C223.348 475.003 230.815 477.38 238.502 477.38C246.189 477.38 253.657 475.003 260.098 470.504C341.838 413.407 401.514 353.464 437.467 292.336C468.568 239.456 481.718 185.224 475.495 135.505ZM238.501 449.662C235.886 449.662 233.271 448.867 230.99 447.271C-61.4855 242.983 21.3627 61.9411 100.529 34.7561C113.54 30.2941 125.644 28.2741 136.905 28.2741C175.845 28.2741 204.703 52.4351 226.189 83.3112C228.981 87.3232 233.162 89.3242 237.32 89.3242C241.719 89.3242 246.09 87.0822 248.747 82.6162C268.182 49.9651 298.053 27.7211 336.96 27.7211C349.25 27.7211 362.448 29.9441 376.495 34.7581C455.628 61.9431 538.477 242.986 246.011 447.274C243.732 448.867 241.115 449.662 238.501 449.662Z" fill="#FF4A4A"/>
</g>
<defs>
<clipPath id="clip0_1_2">
<rect width="477" height="477" fill="white"/>
</clipPath>
</defs>
</svg>
