<svg width="448" height="448" viewBox="0 0 448 448" fill="none" xmlns="http://www.w3.org/2000/svg">
<g clip-path="url(#clip0_1_2)">
<path d="M224 0C126.952 0 48 74.472 48 166V432C48 440.832 55.168 448 64 448H384C392.832 448 400 440.832 400 432V166C400 74.472 321.048 0 224 0Z" fill="#576D7E"/>
<path d="M397.784 440C399.16 437.64 400 434.928 400 432V166C400 74.472 321.048 0 224 0V440H397.784Z" fill="#516575"/>
<path d="M400 352H48C21.528 352 0 373.528 0 400V432C0 440.832 7.168 448 16 448H432C440.832 448 448 440.832 448 432V400C448 373.528 426.472 352 400 352Z" fill="#35495C"/>
<path d="M159.304 286.216C159.304 296.232 144 296.592 144 286.448V221.056C144 217.024 147.112 214.032 150.904 214.032H181.528C210.768 214.032 216.728 253.184 192.36 262.952L207.656 281.624C213.64 290.48 201.672 299 194.784 290.248L177.376 265.392H159.304V286.216ZM159.304 252.16H181.528C196.496 252.16 197.416 227.968 181.528 227.968H159.304V252.16Z" fill="#123247"/>
<path d="M223.504 220.952C223.504 211.512 238.704 211.168 238.704 220.952V286.672C238.704 296.232 223.504 296.464 223.504 286.672V220.952V220.952Z" fill="#123247"/>
<path d="M257.16 220.952C257.16 217.136 260.128 213 264.992 213H291.584C306.552 213 320 223.024 320 242.232C320 260.424 306.552 270.56 291.576 270.56H272.36V285.76C272.36 290.824 269.12 293.688 264.984 293.688C261.184 293.688 257.152 290.824 257.152 285.76V220.952H257.16ZM272.36 227.512V256.184H291.576C299.256 256.184 305.384 249.352 305.384 242.232C305.384 234.192 299.256 227.512 291.576 227.512H272.36V227.512Z" fill="#123247"/>
<path d="M224 173C259.346 173 288 144.346 288 109C288 73.6538 259.346 45 224 45C188.654 45 160 73.6538 160 109C160 144.346 188.654 173 224 173Z" fill="#35495C"/>
<path d="M224 61C256.632 61 283.504 85.44 287.448 117C287.776 114.376 288 111.712 288 109C288 73.656 259.344 45 224 45C188.656 45 160 73.656 160 109C160 111.712 160.224 114.376 160.552 117C164.496 85.44 191.368 61 224 61Z" fill="#123247"/>
<path d="M248 93H232V77C232 72.584 228.424 69 224 69C219.576 69 216 72.584 216 77V93H200C195.576 93 192 96.584 192 101C192 105.416 195.576 109 200 109H216V141C216 145.416 219.576 149 224 149C228.424 149 232 145.416 232 141V109H248C252.424 109 256 105.416 256 101C256 96.584 252.424 93 248 93Z" fill="#748B9E"/>
<path d="M312 256C316.418 256 320 252.418 320 248C320 243.582 316.418 240 312 240C307.582 240 304 243.582 304 248C304 252.418 307.582 256 312 256Z" fill="#123247"/>
<path d="M16 448H432C440.832 448 448 440.832 448 432V400C448 373.528 426.472 352 400 352H224V432H0C0 440.832 7.168 448 16 448Z" fill="#123247"/>
<path d="M224 336H48V352H224V336Z" fill="#516575"/>
</g>
<defs>
<clipPath id="clip0_1_2">
<rect width="448" height="448" fill="white"/>
</clipPath>
</defs>
</svg>
